<svg version="1.1" id="Layer_1" xmlns="http://www.w3.org/2000/svg" xmlns:xlink="http://www.w3.org/1999/xlink" x="0px" y="0px"
	 width="100%" viewBox="0 0 512 512" enable-background="new 0 0 512 512" xml:space="preserve">

<path fill="#ED5729" opacity="1.000000" stroke="none" 
	d="
M25.468658,513.000000 
	C23.966534,512.004822 23.076435,510.769409 21.876425,510.053345 
	C13.839470,505.257538 9.265838,498.364868 9.011915,488.915405 
	C8.859985,483.261536 9.004076,477.599762 9.302125,471.745850 
	C15.004130,486.169800 25.361101,491.317322 40.968857,491.264984 
	C167.131271,490.841736 293.295715,491.027679 419.459564,491.027374 
	C421.792847,491.027344 424.131042,490.925354 426.458344,491.042358 
	C431.134033,491.277527 433.117889,489.144409 433.034668,484.470978 
	C432.883331,475.973816 432.981812,467.472168 432.957550,458.934113 
	C432.939056,458.895813 432.920135,458.812836 433.393036,458.839111 
	C449.186340,458.879639 464.506714,458.893921 479.827118,458.908173 
	C479.892975,470.043030 480.668640,481.233704 479.799316,492.295044 
	C479.109100,501.077637 473.328094,507.270569 465.273376,511.061676 
	C464.575714,511.390045 463.996613,511.970245 463.681213,512.716675 
	C317.979095,513.000000 171.958206,513.000000 25.468658,513.000000 
z"/>
<path fill="#A8E83A" opacity="1.000000" stroke="none" 
	d="
M259.959686,33.888397 
	C267.548828,22.853024 273.374847,10.527946 283.335510,1.236339 
	C288.354919,1.000000 293.709869,1.000000 299.532410,0.999998 
	C301.581360,2.649529 302.930969,4.640007 304.779480,5.896577 
	C326.507721,20.666983 348.330048,35.298794 370.088654,50.024689 
	C392.262115,65.031372 414.419739,80.061928 436.524048,95.170128 
	C442.831390,99.481155 448.911499,104.123528 455.127716,108.569321 
	C462.356659,113.739403 464.208679,123.423393 459.645721,130.538528 
	C449.927856,145.692001 439.447845,160.356720 428.861572,175.720215 
	C421.911591,185.783340 415.380219,195.347977 408.397217,204.958176 
	C403.307831,204.965363 398.670105,204.926987 394.208344,204.610046 
	C403.493042,190.862549 412.657501,177.430832 421.685822,163.908218 
	C425.888428,157.613525 425.228912,148.363708 419.640930,143.347885 
	C415.259827,139.415421 410.009979,136.450821 405.090942,132.629486 
	C404.704926,128.903946 403.755981,125.526787 404.162140,122.321335 
	C405.267487,113.597992 401.598083,108.389366 394.324280,103.633148 
	C370.258423,87.896904 346.632019,71.486076 322.923340,55.208298 
	C318.201385,51.966320 313.847107,51.324287 308.539490,54.010681 
	C304.297638,56.157684 299.489044,57.185085 294.842316,58.398628 
	C293.292145,56.806374 291.948334,55.352604 290.352112,54.271523 
	C280.252411,47.431206 270.096832,40.673416 259.959686,33.888397 
z"/>
<path fill="#ED5729" opacity="1.000000" stroke="none" 
	d="
M480.116089,308.946106 
	C484.947205,308.957764 489.779388,308.910065 494.609222,308.995453 
	C501.311615,309.113983 504.999329,312.828278 505.001373,319.382172 
	C505.009583,345.870972 505.013489,372.359741 504.999146,398.848541 
	C504.995636,405.341644 501.418701,408.960541 495.005219,409.006622 
	C490.340759,409.040161 485.675873,409.017792 480.076782,409.012939 
	C463.754883,409.019592 448.367340,409.033661 432.514069,409.011780 
	C421.757324,408.953644 411.464050,409.062592 401.175781,408.884186 
	C372.489960,408.386719 350.010345,384.601196 351.445068,356.211060 
	C352.486542,358.157257 353.400970,359.911407 353.923859,361.775391 
	C358.683807,378.743073 376.146851,394.586273 393.268951,395.738739 
	C410.149811,396.874969 427.128784,396.934326 444.059692,396.806549 
	C454.634460,396.726715 457.892242,392.863770 457.941620,382.246857 
	C458.033661,362.460052 457.945038,342.672485 457.984192,322.885345 
	C457.994690,317.579742 456.438110,313.089478 452.425537,309.908661 
	C461.970032,309.582794 471.043060,309.264435 480.116089,308.946106 
z"/>
<path fill="#ED5729" opacity="1.000000" stroke="none" 
	d="
M466.004333,207.854050 
	C475.118927,211.850952 479.658844,219.060440 479.936951,228.776398 
	C480.225372,238.853348 479.991913,248.945221 479.460510,259.486206 
	C463.647186,259.933472 448.360046,259.925079 433.023895,259.734741 
	C432.974854,259.552734 432.898804,259.183472 432.924438,258.698456 
	C432.963226,249.240295 433.289612,240.253876 432.910187,231.297363 
	C432.436279,220.111557 427.478058,211.614685 416.641235,207.255051 
	C415.106323,206.637558 413.635864,205.860001 412.594696,205.125458 
	C425.858826,205.072983 438.671082,204.795868 451.465057,205.160614 
	C456.333130,205.299393 461.159149,206.912750 466.004333,207.854050 
z"/>
<path fill="#FF901D" opacity="1.000000" stroke="none" 
	d="
M432.979828,409.047760 
	C448.367340,409.033661 463.754883,409.019592 479.614441,409.036438 
	C480.047272,425.377563 480.008057,441.687744 479.897980,458.453064 
	C464.506714,458.893921 449.186340,458.879639 433.410950,458.388763 
	C432.963898,441.624023 432.971863,425.335876 432.979828,409.047760 
z"/>
<path fill="#FF901D" opacity="1.000000" stroke="none" 
	d="
M433.072937,259.916718 
	C448.360046,259.925079 463.647186,259.933472 479.393372,259.947632 
	C479.906982,275.976227 479.961548,291.998993 480.066101,308.483948 
	C471.043060,309.264435 461.970032,309.582794 452.113281,309.766418 
	C445.188171,309.679718 439.046783,309.727722 432.923096,309.321472 
	C432.984833,292.550354 433.028870,276.233521 433.072937,259.916718 
z"/>
<path fill="#FFB125" opacity="1.000000" stroke="none" 
	d="
M465.998901,207.399200 
	C461.159149,206.912750 456.333130,205.299393 451.465057,205.160614 
	C438.671082,204.795868 425.858826,205.072983 412.183350,205.083771 
	C410.491547,205.019638 409.670197,204.966125 408.848846,204.912628 
	C415.380219,195.347977 421.911591,185.783340 428.730316,176.031479 
	C435.638550,175.896133 442.259399,175.946320 448.880280,176.000305 
	C458.279236,176.076950 465.985443,183.741928 465.998596,193.033508 
	C466.005188,197.670441 465.995697,202.307404 465.998901,207.399200 
z"/>
<path fill="#FFB125" opacity="1.000000" stroke="none" 
	d="
M433.023895,259.734741 
	C433.028870,276.233521 432.984833,292.550354 432.464478,309.362915 
	C420.865997,309.892151 409.743683,309.899323 398.621735,309.967194 
	C389.175232,310.024811 380.723145,313.256805 373.027283,318.488098 
	C359.768585,327.500702 353.688782,340.778046 351.136414,356.070007 
	C350.010345,384.601196 372.489960,408.386719 401.175781,408.884186 
	C411.464050,409.062592 421.757324,408.953644 432.514069,409.011780 
	C432.971863,425.335876 432.963898,441.624023 432.938049,458.362488 
	C432.920135,458.812836 432.939056,458.895813 432.491272,458.927002 
	C291.084290,458.968109 150.125046,458.978027 9.165807,458.987915 
	C9.110533,453.165771 9.007819,447.343658 9.007302,441.521515 
	C9.001954,381.266724 9.013085,321.011932 9.507503,260.295532 
	C18.645456,259.596008 27.295332,259.161133 35.945660,259.151947 
	C93.772209,259.090668 151.598862,259.112091 209.425476,259.122101 
	C283.916595,259.135010 358.407684,259.162354 432.898804,259.183472 
	C432.898804,259.183472 432.974854,259.552734 433.023895,259.734741 
z"/>
<path fill="#FF6D3A" opacity="1.000000" stroke="none" 
	d="
M432.924438,258.698456 
	C358.407684,259.162354 283.916595,259.135010 209.425476,259.122101 
	C151.598862,259.112091 93.772209,259.090668 35.945660,259.151947 
	C27.295332,259.161133 18.645456,259.596008 9.575265,259.818787 
	C9.099767,249.193893 8.872652,238.581482 9.040878,227.975342 
	C9.187288,218.744690 17.580223,208.822617 27.955431,205.969162 
	C32.891685,205.657776 37.017559,205.168228 41.150257,205.101456 
	C50.781395,204.945862 60.415813,204.993729 70.513000,204.999664 
	C78.909050,204.993423 86.841003,204.946701 95.260063,204.959793 
	C111.824738,204.975861 127.902313,204.932114 144.445953,204.953171 
	C154.563385,204.977692 164.214737,204.937378 174.345093,204.958557 
	C194.188828,204.975876 213.553589,204.931717 233.389526,204.952789 
	C269.584045,204.975052 305.307343,204.932068 341.493500,204.953125 
	C348.976715,204.970963 355.997101,204.924744 363.475525,204.945511 
	C367.956757,205.079941 371.979919,205.147369 376.117706,205.292572 
	C376.232300,205.370331 376.635895,205.400909 376.635895,205.400909 
	C376.635895,205.400909 376.998505,205.213379 377.325500,205.152924 
	C378.090149,205.024414 378.527771,204.956345 379.430603,204.953110 
	C384.608002,204.974838 389.320190,204.931732 394.032379,204.888626 
	C398.670105,204.926987 403.307831,204.965363 408.397217,204.958176 
	C409.670197,204.966125 410.491547,205.019638 411.724243,205.114838 
	C413.635864,205.860001 415.106323,206.637558 416.641235,207.255051 
	C427.478058,211.614685 432.436279,220.111557 432.910187,231.297363 
	C433.289612,240.253876 432.963226,249.240295 432.924438,258.698456 
z"/>
<path fill="#FF6D3A" opacity="1.000000" stroke="none" 
	d="
M9.091951,459.444153 
	C150.125046,458.978027 291.084290,458.968109 432.509766,458.965332 
	C432.981812,467.472168 432.883331,475.973816 433.034668,484.470978 
	C433.117889,489.144409 431.134033,491.277527 426.458344,491.042358 
	C424.131042,490.925354 421.792847,491.027344 419.459564,491.027374 
	C293.295715,491.027679 167.131271,490.841736 40.968857,491.264984 
	C25.361101,491.317322 15.004130,486.169800 9.378233,471.283813 
	C9.117582,467.311768 9.067839,463.606079 9.091951,459.444153 
z"/>
<path fill="#A8E83A" opacity="1.000000" stroke="none" 
	d="
M81.158852,88.011009 
	C82.078339,78.748688 82.859985,69.469666 83.979950,60.231644 
	C84.482002,56.090485 85.056946,51.771507 86.679245,47.997688 
	C88.965851,42.678581 93.473244,39.553692 99.551132,40.039635 
	C114.421753,41.228573 129.276077,42.621906 144.135925,43.944878 
	C151.651352,44.613979 159.169617,45.257492 166.677536,46.003597 
	C179.540390,47.281853 192.390640,48.688400 205.256851,49.930691 
	C213.424133,50.719280 221.617249,51.239067 229.786148,52.012791 
	C234.630264,52.471607 239.449814,53.189728 244.626282,54.344212 
	C241.025940,61.187901 237.212570,67.567802 233.075943,73.730728 
	C231.088989,76.690964 228.491318,79.241280 225.700302,82.007523 
	C212.197418,80.863480 199.166412,79.666641 186.130905,78.520973 
	C172.436234,77.317360 158.733185,76.207764 145.042267,74.963608 
	C139.858551,74.492554 136.312546,76.500687 133.322250,80.785019 
	C130.904572,84.248917 127.508194,87.029716 124.106354,90.025246 
	C114.676987,88.957375 105.706062,87.672226 96.690178,87.116531 
	C91.550972,86.799759 86.338394,87.673409 81.158852,88.011009 
z"/>
<path fill="#B6FA4B" opacity="1.000000" stroke="none" 
	d="
M226.170197,81.977234 
	C228.491318,79.241280 231.088989,76.690964 233.075943,73.730728 
	C237.212570,67.567802 241.025940,61.187901 245.003357,54.545383 
	C249.794724,47.519470 254.554871,40.845337 259.637360,34.029800 
	C270.096832,40.673416 280.252411,47.431206 290.352112,54.271523 
	C291.948334,55.352604 293.292145,56.806374 294.384583,58.483002 
	C289.563232,58.926006 285.095276,59.221645 280.660400,58.958954 
	C275.120697,58.630817 271.076447,60.614071 268.301605,65.410004 
	C266.982819,67.689384 265.459656,69.850510 263.789276,72.296158 
	C240.490189,106.405777 217.409622,140.269989 194.384613,174.171936 
	C187.465515,184.359573 180.701263,194.652420 173.866089,204.897064 
	C164.214737,204.937378 154.563385,204.977692 144.586380,204.647430 
	C147.049454,200.132462 149.830704,195.983002 152.628189,191.844528 
	C167.454971,169.910538 182.285858,147.979340 197.360016,125.824951 
	C206.527588,112.571686 215.475815,99.557785 224.334381,86.483154 
	C225.224365,85.169571 225.571259,83.488014 226.170197,81.977234 
z"/>
<path fill="#B6FA4C" opacity="1.000000" stroke="none" 
	d="
M81.088974,88.438690 
	C86.338394,87.673409 91.550972,86.799759 96.690178,87.116531 
	C105.706062,87.672226 114.676987,88.957375 123.859825,90.297119 
	C119.964714,93.153343 116.000168,95.889297 111.753662,98.078270 
	C107.476051,100.283264 104.322685,103.043671 103.945145,108.133583 
	C103.701729,111.415291 103.440681,114.695686 103.130180,118.409973 
	C102.018982,129.228073 100.916443,139.608200 99.922012,149.998657 
	C98.170853,168.295776 96.485741,186.599182 94.772964,204.899963 
	C86.841003,204.946701 78.909050,204.993423 70.497879,204.550171 
	C70.626076,194.704575 71.233498,185.348969 71.840912,175.993347 
	C72.893814,165.767639 73.895012,155.536285 75.013359,145.317734 
	C76.272896,133.809036 77.691406,122.317650 78.937805,110.807587 
	C79.728661,103.504364 80.331787,96.180801 81.088974,88.438690 
z"/>
<path fill="#FFB125" opacity="1.000000" stroke="none" 
	d="
M71.384285,175.996124 
	C71.233498,185.348969 70.626076,194.704575 70.033783,204.509674 
	C60.415813,204.993729 50.781395,204.945862 41.150257,205.101456 
	C37.017559,205.168228 32.891685,205.657776 28.331591,205.950714 
	C28.265116,200.386261 28.180220,194.750565 29.101589,189.284485 
	C30.426680,181.423294 37.505417,176.022095 45.499825,176.004105 
	C53.975731,175.985031 62.451710,175.999252 71.384285,175.996124 
z"/>
<path fill="#73CC00" opacity="1.000000" stroke="none" 
	d="
M264.029083,72.065208 
	C265.459656,69.850510 266.982819,67.689384 268.301605,65.410004 
	C271.076447,60.614071 275.120697,58.630817 280.660400,58.958954 
	C285.095276,59.221645 289.563232,58.926006 294.474243,58.793789 
	C299.489044,57.185085 304.297638,56.157684 308.539490,54.010681 
	C313.847107,51.324287 318.201385,51.966320 322.923340,55.208298 
	C346.632019,71.486076 370.258423,87.896904 394.324280,103.633148 
	C401.598083,108.389366 405.267487,113.597992 404.162140,122.321335 
	C403.755981,125.526787 404.704926,128.903946 405.112671,133.004288 
	C406.600616,137.870392 407.523956,142.197327 409.536346,145.938492 
	C412.607483,151.648056 412.019043,156.392914 408.358826,161.630127 
	C398.373047,175.918152 388.738861,190.451874 378.965393,204.888275 
	C378.527771,204.956345 378.090149,205.024414 377.076538,205.107941 
	C376.334747,205.153870 376.168945,205.184326 376.003113,205.214798 
	C371.979919,205.147369 367.956757,205.079941 363.556213,204.617767 
	C366.035431,199.931244 368.920868,195.658356 371.740143,191.342239 
	C374.425323,187.231354 374.852539,182.972122 372.301422,178.618546 
	C367.939331,171.174622 366.186279,163.038269 367.095245,154.589203 
	C368.063904,145.585022 364.133545,140.151794 356.830261,135.372116 
	C330.483459,118.129280 304.423889,100.446098 278.328369,82.821869 
	C273.391998,79.487961 268.786987,75.663391 264.029083,72.065208 
z"/>
<path fill="#B5FA4B" opacity="1.000000" stroke="none" 
	d="
M379.430603,204.953110 
	C388.738861,190.451874 398.373047,175.918152 408.358826,161.630127 
	C412.019043,156.392914 412.607483,151.648056 409.536346,145.938492 
	C407.523956,142.197327 406.600616,137.870392 405.167816,133.431000 
	C410.009979,136.450821 415.259827,139.415421 419.640930,143.347885 
	C425.228912,148.363708 425.888428,157.613525 421.685822,163.908218 
	C412.657501,177.430832 403.493042,190.862549 394.208344,204.610046 
	C389.320190,204.931732 384.608002,204.974838 379.430603,204.953110 
z"/>
<path fill="#FF6D3A" opacity="1.000000" stroke="none" 
	d="
M351.445068,356.211060 
	C353.688782,340.778046 359.768585,327.500702 373.027283,318.488098 
	C380.723145,313.256805 389.175232,310.024811 398.621735,309.967194 
	C409.743683,309.899323 420.865997,309.892151 432.446777,309.817200 
	C439.046783,309.727722 445.188171,309.679718 451.641785,309.773926 
	C456.438110,313.089478 457.994690,317.579742 457.984192,322.885345 
	C457.945038,342.672485 458.033661,362.460052 457.941620,382.246857 
	C457.892242,392.863770 454.634460,396.726715 444.059692,396.806549 
	C427.128784,396.934326 410.149811,396.874969 393.268951,395.738739 
	C376.146851,394.586273 358.683807,378.743073 353.923859,361.775391 
	C353.400970,359.911407 352.486542,358.157257 351.445068,356.211060 
M410.345856,337.806122 
	C405.269989,337.653992 399.754028,336.139832 395.202606,337.610657 
	C382.639404,341.670471 375.602478,355.887299 382.325775,369.424744 
	C386.734039,378.300781 396.475586,383.472137 405.562012,381.927826 
	C415.502289,380.238342 424.078217,372.385681 425.039459,364.092957 
	C426.531494,351.221191 421.812836,342.336548 410.345856,337.806122 
z"/>
<path fill="#77DD00" opacity="1.000000" stroke="none" 
	d="
M263.789276,72.296165 
	C268.786987,75.663391 273.391998,79.487961 278.328369,82.821869 
	C304.423889,100.446098 330.483459,118.129280 356.830261,135.372116 
	C364.133545,140.151794 368.063904,145.585022 367.095245,154.589203 
	C366.186279,163.038269 367.939331,171.174622 372.301422,178.618546 
	C374.852539,182.972122 374.425323,187.231354 371.740143,191.342239 
	C368.920868,195.658356 366.035431,199.931244 363.098206,204.550781 
	C355.997101,204.924744 348.976715,204.970963 341.484650,204.495789 
	C340.861450,199.828842 341.264191,195.573914 340.470978,191.555008 
	C333.952881,158.530777 299.673370,139.431686 268.179260,151.094986 
	C248.336838,158.443283 231.725998,178.479095 232.918335,204.887558 
	C213.553589,204.931717 194.188828,204.975876 174.345078,204.958557 
	C180.701263,194.652420 187.465515,184.359573 194.384613,174.171936 
	C217.409622,140.269989 240.490189,106.405777 263.789276,72.296165 
z"/>
<path fill="#77DD00" opacity="1.000000" stroke="none" 
	d="
M95.260063,204.959793 
	C96.485741,186.599182 98.170853,168.295776 99.922012,149.998657 
	C100.916443,139.608200 102.018982,129.228073 103.571541,118.415268 
	C108.694778,118.324013 113.324516,118.601608 117.942810,119.009041 
	C129.986191,120.071510 142.022736,121.211411 154.065414,122.282219 
	C168.413528,123.557999 182.765198,124.793968 197.115326,126.047180 
	C182.285858,147.979340 167.454971,169.910538 152.628189,191.844528 
	C149.830704,195.983002 147.049454,200.132462 144.120300,204.582611 
	C127.902313,204.932114 111.824738,204.975861 95.260063,204.959793 
z"/>
<path fill="#B6FA4C" opacity="1.000000" stroke="none" 
	d="
M233.389526,204.952789 
	C231.725998,178.479095 248.336838,158.443283 268.179260,151.094986 
	C299.673370,139.431686 333.952881,158.530777 340.470978,191.555008 
	C341.264191,195.573914 340.861450,199.828842 341.021820,204.431732 
	C305.307343,204.932068 269.584045,204.975052 233.389526,204.952789 
z"/>
<path fill="#F98335" opacity="1.000000" stroke="none" 
	d="
M376.117706,205.292572 
	C376.168945,205.184326 376.334747,205.153870 376.749512,205.168396 
	C376.998505,205.213379 376.635895,205.400909 376.635895,205.400909 
	C376.635895,205.400909 376.232300,205.370331 376.117706,205.292572 
z"/>
<path fill="#73CC00" opacity="1.000000" stroke="none" 
	d="
M197.360016,125.824966 
	C182.765198,124.793968 168.413528,123.557999 154.065414,122.282219 
	C142.022736,121.211411 129.986191,120.071510 117.942810,119.009041 
	C113.324516,118.601608 108.694778,118.324013 103.628891,117.981964 
	C103.440681,114.695686 103.701729,111.415291 103.945145,108.133583 
	C104.322685,103.043671 107.476051,100.283264 111.753662,98.078270 
	C116.000168,95.889297 119.964714,93.153343 124.299438,90.385391 
	C127.508194,87.029716 130.904572,84.248917 133.322250,80.785019 
	C136.312546,76.500687 139.858551,74.492554 145.042267,74.963608 
	C158.733185,76.207764 172.436234,77.317360 186.130905,78.520973 
	C199.166412,79.666641 212.197418,80.863480 225.700287,82.007523 
	C225.571259,83.488014 225.224365,85.169571 224.334381,86.483154 
	C215.475815,99.557785 206.527588,112.571686 197.360016,125.824966 
z"/>
<path fill="#F2F1F1" opacity="1.000000" stroke="none" 
	d="
M410.751556,337.880249 
	C421.812836,342.336548 426.531494,351.221191 425.039459,364.092957 
	C424.078217,372.385681 415.502289,380.238342 405.562012,381.927826 
	C396.475586,383.472137 386.734039,378.300781 382.325775,369.424744 
	C375.602478,355.887299 382.639404,341.670471 395.202606,337.610657 
	C399.754028,336.139832 405.269989,337.653992 410.751556,337.880249 
z"/>
</svg>